<svg xmlns="http://www.w3.org/2000/svg">
	<symbol id='logo' width="50" height="38" viewBox="0 0 50 38" fill="currentColor"
		xmlns="http://www.w3.org/2000/svg">
		<path
			d="M24.957 10.2363L42.6826 0.000976562L47.6338 2.85938C49.0413 3.67213 49.9082 5.17447 49.9082 6.7998V30.3604C49.9082 31.9857 49.0413 33.488 47.6338 34.3008L42.6855 37.1572L24.957 26.9219L7.22656 37.1582V37.1592L2.27441 34.3008C0.866917 33.488 0 31.9857 0 30.3604V6.7998C0 5.17447 0.866903 3.67213 2.27441 2.85938L7.22754 0L24.957 10.2363Z"
		/>
	</symbol>

	<symbol
		id='slide-arrow'
		width="24"
		height="24"
		viewBox="0 0 24 24"
		fill="none"
		stroke='currentColor'
		xmlns="http://www.w3.org/2000/svg"
	>
		<path
			d="M11.834 2.5L2.33398 12M2.33398 12L11.834 21.5M2.33398 12H21.0546"
			stroke-width="2"
		/>
	</symbol>
</svg>